<svg width="16" height="15" viewBox="0 0 16 15" fill="none" xmlns="http://www.w3.org/2000/svg">
<path fill-rule="evenodd" clip-rule="evenodd" d="M4.18158 0.494753C4.68053 0.244198 5.28775 0.397484 5.60799 0.854837L6.61938 2.29926C6.85574 2.63681 6.88863 3.07657 6.70513 3.44553L5.77122 5.32323C5.71005 5.44622 5.72102 5.59281 5.7998 5.70532L8.15639 9.07088C8.23517 9.18339 8.36917 9.24383 8.50566 9.22842L10.5895 8.99304C10.999 8.94679 11.401 9.12811 11.6374 9.46566L12.6487 10.9101C12.969 11.3674 12.9054 11.9905 12.4993 12.3736L10.6495 14.1189C9.81762 14.9038 8.48287 14.7675 7.82685 13.8306L1.21443 4.38707C0.558404 3.45017 0.886804 2.14929 1.90891 1.63602L4.18158 0.494753ZM4.99362 1.28502C4.88688 1.13257 4.68447 1.08147 4.51816 1.16499L2.24548 2.30626C1.63222 2.61422 1.43518 3.39475 1.82879 3.95689L8.44122 13.4004C8.83483 13.9625 9.63568 14.0443 10.1348 13.5734L11.9846 11.8281C12.1199 11.7004 12.1411 11.4927 12.0344 11.3403L11.023 9.89585C10.9442 9.78333 10.8102 9.72289 10.6737 9.73831L8.58984 9.97368C8.18037 10.0199 7.77838 9.83861 7.54202 9.50106L5.18544 6.13551C4.94908 5.79796 4.91619 5.3582 5.09969 4.98924L6.0336 3.11153C6.09477 2.98855 6.08381 2.84196 6.00502 2.72944L4.99362 1.28502Z" fill="#D6A001"/>
<path fill-rule="evenodd" clip-rule="evenodd" d="M14.7164 2.05786H10.9664V2.80786L14.7164 2.80786V2.05786Z" fill="#D6A001"/>
<path fill-rule="evenodd" clip-rule="evenodd" d="M15.3566 2.698C15.503 2.55155 15.503 2.31411 15.3566 2.16767L13.8566 0.667668L13.3263 1.198L14.5611 2.43283L13.3263 3.66767L13.8566 4.198L15.3566 2.698Z" fill="#D6A001"/>
<path fill-rule="evenodd" clip-rule="evenodd" d="M11.3414 6.74536H15.0914V5.99536H11.3414V6.74536Z" fill="#D6A001"/>
<path fill-rule="evenodd" clip-rule="evenodd" d="M10.7013 6.10522C10.5548 6.25167 10.5548 6.48911 10.7013 6.63555L12.2013 8.13555L12.7316 7.60522L11.4968 6.37039L12.7316 5.13555L12.2013 4.60522L10.7013 6.10522Z" fill="#D6A001"/>
</svg>
