<svg xmlns="http://www.w3.org/2000/svg" width="32" height="32" fill="none" viewBox="0 0 32 32"><path fill="#D6A001" fill-rule="evenodd" d="M16 10.0001C12.6863 10.0001 9.99999 12.6864 9.99999 16.0001C9.99999 17.352 10.4463 18.5978 11.2 19.6007C11.2432 19.6582 11.2768 19.7223 11.2995 19.7904L12.469 23.2992C12.7412 24.1159 13.5055 24.6667 14.3664 24.6667H17.6334C18.4943 24.6667 19.2586 24.1159 19.5308 23.2992L20.7005 19.7904C20.7232 19.7222 20.7568 19.6582 20.8 19.6007C21.5536 18.5978 22 17.352 22 16.0001C22 12.6864 19.3137 10.0001 16 10.0001ZM8.66666 16.0001C8.66666 11.95 11.9499 8.66675 16 8.66675C20.0501 8.66675 23.3333 11.95 23.3333 16.0001C23.3333 17.611 22.8132 19.1022 21.9319 20.3125L20.7957 23.7209C20.342 25.082 19.0682 26.0001 17.6334 26.0001H14.3664C12.9316 26.0001 11.6578 25.082 11.2041 23.7208L10.0681 20.3125C9.18681 19.1022 8.66666 17.611 8.66666 16.0001Z" clip-rule="evenodd"/><path fill="#D6A001" fill-rule="evenodd" d="M23.5286 7.52873L26.1953 4.86206L27.1381 5.80487L24.4714 8.47154L23.5286 7.52873Z" clip-rule="evenodd"/><path fill="#D6A001" fill-rule="evenodd" d="M26.6666 15.3335H29.3333V16.6668H26.6666V15.3335Z" clip-rule="evenodd"/><path fill="#D6A001" fill-rule="evenodd" d="M2.66665 15.3335L5.33331 15.3335L5.33331 16.6668L2.66665 16.6668L2.66665 15.3335Z" clip-rule="evenodd"/><path fill="#D6A001" fill-rule="evenodd" d="M5.80474 4.8619L8.47141 7.52856L7.5286 8.47137L4.86193 5.80471L5.80474 4.8619Z" clip-rule="evenodd"/><path fill="#D6A001" fill-rule="evenodd" d="M16.6666 2.66675V5.33341H15.3333V2.66675H16.6666Z" clip-rule="evenodd"/><path fill="#D6A001" fill-rule="evenodd" d="M12.6667 26.6667C12.6667 28.5076 14.159 30 16 30C17.8409 30 19.3333 28.5076 19.3333 26.6667V25.3333C19.3333 24.9651 19.0348 24.6667 18.6667 24.6667H13.3333C12.9651 24.6667 12.6667 24.9651 12.6667 25.3333V26.6667ZM16 28.6667C14.8954 28.6667 14 27.7712 14 26.6667V26H18V26.6667C18 27.7712 17.1046 28.6667 16 28.6667Z" clip-rule="evenodd"/></svg>