<svg xmlns="http://www.w3.org/2000/svg" width="12" height="13" fill="none" viewBox="0 0 12 13"><path fill="#D6A001" fill-rule="evenodd" d="M6 0.875C3.51472 0.875 1.5 2.88972 1.5 5.375C1.5 7.32599 2.63806 9.01728 3.83175 10.2486C4.42369 10.8592 5.01686 11.3437 5.4623 11.6755C5.68471 11.8412 5.86947 11.9682 5.99774 12.0533C5.9985 12.0538 5.99925 12.0543 6 12.0547C6.00075 12.0543 6.0015 12.0538 6.00226 12.0533C6.13053 11.9682 6.31529 11.8412 6.5377 11.6755C6.98314 11.3437 7.57631 10.8592 8.16825 10.2486C9.36194 9.01728 10.5 7.32599 10.5 5.375C10.5 2.88972 8.48528 0.875 6 0.875ZM6 12.5C5.8067 12.8213 5.80658 12.8213 5.80644 12.8212L5.80608 12.821L5.80501 12.8203L5.80156 12.8182L5.78947 12.8108C5.77914 12.8045 5.76432 12.7953 5.74531 12.7833C5.7073 12.7593 5.6525 12.7242 5.58331 12.6783C5.44498 12.5866 5.24889 12.4518 5.01427 12.277C4.54564 11.9279 3.92006 11.4172 3.29325 10.7707C2.04944 9.48761 0.75 7.6164 0.75 5.375C0.75 2.47551 3.10051 0.125 6 0.125C8.8995 0.125 11.25 2.47551 11.25 5.375C11.25 7.6164 9.95056 9.48761 8.70675 10.7707C8.07994 11.4172 7.45436 11.9279 6.98573 12.277C6.75111 12.4518 6.55502 12.5866 6.41669 12.6783C6.3475 12.7242 6.2927 12.7593 6.25469 12.7833C6.23568 12.7953 6.22086 12.8045 6.21053 12.8108L6.19844 12.8182L6.19499 12.8203L6.19392 12.821L6.19356 12.8212C6.19342 12.8213 6.1933 12.8213 6 12.5ZM6 12.5L6.1933 12.8213C6.07437 12.8929 5.92563 12.8929 5.8067 12.8213L6 12.5Z" clip-rule="evenodd"/><path fill="#D6A001" fill-rule="evenodd" d="M6 3.125C4.96447 3.125 4.125 3.96447 4.125 5C4.125 6.03553 4.96447 6.875 6 6.875C7.03553 6.875 7.875 6.03553 7.875 5C7.875 3.96447 7.03553 3.125 6 3.125ZM3.375 5C3.375 3.55025 4.55025 2.375 6 2.375C7.44975 2.375 8.625 3.55025 8.625 5C8.625 6.44975 7.44975 7.625 6 7.625C4.55025 7.625 3.375 6.44975 3.375 5Z" clip-rule="evenodd"/></svg>