<svg width="28" height="28" viewBox="0 0 28 28" fill="none" xmlns="http://www.w3.org/2000/svg">
<path fill-rule="evenodd" clip-rule="evenodd" d="M14 5.33333C9.21353 5.33333 5.33333 9.21353 5.33333 14C5.33333 18.7865 9.21353 22.6667 14 22.6667C18.7865 22.6667 22.6667 18.7865 22.6667 14C22.6667 9.21353 18.7865 5.33333 14 5.33333ZM4 14C4 8.47715 8.47715 4 14 4C19.5228 4 24 8.47715 24 14C24 19.5228 19.5228 24 14 24C8.47715 24 4 19.5228 4 14Z" fill="#D6A001"/>
<path fill-rule="evenodd" clip-rule="evenodd" d="M14 1.33333C7.00439 1.33333 1.33333 7.00439 1.33333 14C1.33333 20.9956 7.00439 26.6667 14 26.6667C20.9956 26.6667 26.6667 20.9956 26.6667 14C26.6667 7.00439 20.9956 1.33333 14 1.33333ZM0 14C0 6.26801 6.26801 0 14 0C21.732 0 28 6.26801 28 14C28 21.732 21.732 28 14 28C6.26801 28 0 21.732 0 14Z" fill="#D6A001"/>
<path fill-rule="evenodd" clip-rule="evenodd" d="M12 12.4914C12 11.4837 12.8169 10.6667 13.8247 10.6667H16V12.0001H13.8247C13.5533 12.0001 13.3333 12.2201 13.3333 12.4914C13.3333 12.6557 13.4154 12.8091 13.5521 12.9003L15.1875 13.9905C15.6951 14.3289 16 14.8986 16 15.5087C16 16.5165 15.1831 17.3334 14.1753 17.3334H12V16.0001H14.1753C14.4467 16.0001 14.6667 15.7801 14.6667 15.5087C14.6667 15.3444 14.5846 15.191 14.4479 15.0999L12.8125 14.0097C12.3049 13.6713 12 13.1015 12 12.4914Z" fill="#D6A001"/>
<path fill-rule="evenodd" clip-rule="evenodd" d="M13.3333 19.3334V16.6667H14.6667V19.3334H13.3333Z" fill="#D6A001"/>
<path fill-rule="evenodd" clip-rule="evenodd" d="M13.3333 11.3334V8.66675H14.6667V11.3334H13.3333Z" fill="#D6A001"/>
</svg>
