<svg xmlns="http://www.w3.org/2000/svg" width="26" height="28" fill="none" viewBox="0 0 26 28"><path fill="#D6A001" fill-rule="evenodd" d="M13 1.33333C9.68631 1.33333 7.00002 4.01962 7.00002 7.33333C7.00002 10.647 9.68631 13.3333 13 13.3333C16.3137 13.3333 19 10.647 19 7.33333C19 4.01962 16.3137 1.33333 13 1.33333ZM5.66669 7.33333C5.66669 3.28324 8.94993 0 13 0C17.0501 0 20.3334 3.28324 20.3334 7.33333C20.3334 11.3834 17.0501 14.6667 13 14.6667C8.94993 14.6667 5.66669 11.3834 5.66669 7.33333Z" clip-rule="evenodd"/><path fill="#D6A001" fill-rule="evenodd" d="M0.333344 23.3333C0.333344 20.0195 3.01963 17.3333 6.33334 17.3333H19.6667C22.9804 17.3333 25.6667 20.0195 25.6667 23.3333V24.6666C25.6667 26.5075 24.1743 27.9999 22.3333 27.9999H3.66668C1.82573 27.9999 0.333344 26.5075 0.333344 24.6666V23.3333ZM6.33334 18.6666C3.75601 18.6666 1.66668 20.7559 1.66668 23.3333V24.6666C1.66668 25.7712 2.56211 26.6666 3.66668 26.6666H22.3333C23.4379 26.6666 24.3333 25.7712 24.3333 24.6666V23.3333C24.3333 20.7559 22.244 18.6666 19.6667 18.6666H6.33334Z" clip-rule="evenodd"/><path fill="#D6A001" fill-rule="evenodd" d="M9.78131 17.6262C9.90533 17.443 10.1121 17.3333 10.3334 17.3333H15.6667C15.8879 17.3333 16.0947 17.443 16.2187 17.6262C16.3428 17.8093 16.3678 18.0421 16.2857 18.2475L14.857 21.8193C14.1865 23.4955 11.8136 23.4955 11.1431 21.8193L9.71437 18.2475C9.63221 18.0421 9.65729 17.8093 9.78131 17.6262ZM11.318 18.6666L12.381 21.3241C12.6045 21.8828 13.3955 21.8828 13.619 21.3241L14.682 18.6666H11.318Z" clip-rule="evenodd"/></svg>